<svg xmlns="http://www.w3.org/2000/svg" width="256" height="256" viewBox="0 0 100 100"><rect width="100" height="100" rx="50" fill="#ff6b01"></rect><path fill="#fff" d="M18.93 55.47L18.93 71.89Q18.50 72.03 17.78 72.21Q17.06 72.39 16.20 72.39L16.20 72.39Q13.03 72.39 13.03 69.73L13.03 69.73L13.03 31.42Q13.03 30.27 13.60 29.66Q14.18 29.05 15.40 28.69L15.40 28.69Q17.49 28.04 20.55 27.75Q23.61 27.46 26.49 27.46L26.49 27.46Q35.56 27.46 39.99 31.10Q44.42 34.74 44.42 41.43L44.42 41.43Q44.42 46.40 41.86 49.78Q39.31 53.17 34.12 54.61L34.12 54.61Q35.92 56.91 37.72 59.22Q39.52 61.52 41.14 63.57Q42.76 65.62 44.02 67.28Q45.28 68.94 46.00 69.87L46.00 69.87Q45.72 71.10 44.74 71.82Q43.77 72.54 42.76 72.54L42.76 72.54Q41.54 72.54 40.75 71.96Q39.96 71.38 39.09 70.16L39.09 70.16L28.58 55.47L18.93 55.47ZM18.86 50.58L27.14 50.58Q32.47 50.58 35.49 48.27Q38.52 45.97 38.52 41.43L38.52 41.43Q38.52 36.90 35.35 34.63Q32.18 32.36 26.28 32.36L26.28 32.36Q24.33 32.36 22.35 32.54Q20.37 32.72 18.86 33.01L18.86 33.01L18.86 50.58ZM79.70 70.16L61.34 51.15L61.34 71.96Q60.91 72.10 60.19 72.28Q59.47 72.46 58.60 72.46L58.60 72.46Q55.44 72.46 55.44 69.80L55.44 69.80L55.44 28.40Q55.80 28.26 56.55 28.08Q57.31 27.90 58.17 27.90L58.17 27.90Q61.34 27.90 61.34 30.56L61.34 30.56L61.34 48.49L81.14 27.97Q83.01 28.04 83.95 28.90Q84.88 29.77 84.88 30.92L84.88 30.92Q84.88 31.86 84.38 32.65Q83.88 33.44 82.94 34.38L82.94 34.38L67.39 49.64Q73.94 56.05 78.73 61.05Q83.52 66.06 86.97 69.15L86.97 69.15Q86.83 70.74 86 71.64Q85.17 72.54 83.88 72.54L83.88 72.54Q82.65 72.54 81.68 71.85Q80.71 71.17 79.70 70.16L79.70 70.16Z"></path></svg>